<svg xmlns="http://www.w3.org/2000/svg" width="16" height="16" viewBox="0 0 16 16">

  <g fill="#62f09b" fill-rule="evenodd" transform="scale(.9),translate(0 0)">
    <path d="M5.69264079,6.99730757 L4.40590723,5.71057401 L2.6004967,7.51598454 L0.835355238,5.75084308 L2.85847874,3.72771958 C2.87827585,3.69595835 2.90197387,3.66593569 2.92957281,3.63833674 C2.92997576,3.63793379 2.93037941,3.63753153 2.93078373,3.63712996 L5.57817383,1.00778198 L5.5828667,1.00999036 L8.55502199,1 L8.54684975,1.69034183 L7.556131,2.15985218 L5.95234249,3.72147536 L7.46040774,5.22954061 L5.69264079,6.99730757 Z M9.05624522,10.360912 L10.8240122,8.59314504 L13.5154336,11.2845664 L11.7476666,13.0523334 L9.05624522,10.360912 Z"/>
    <path d="M7.86612242,0.301694308 L7.86612242,2.88064545 L9.95540813,2.88064545 L9.95540813,0.301694597 C10.9763132,0.714946608 11.6964792,1.7158295 11.6964792,2.8849162 C11.6964792,4.00372747 11.0369214,4.96849075 10.0854153,5.41159647 L10.0854153,14.1803742 L7.5854153,14.1803742 L7.5854153,5.33575931 C6.71567654,4.86443505 6.12505063,3.94364966 6.12505063,2.8849162 C6.12505063,1.71582923 6.84521702,0.714946142 7.86612242,0.301694308 Z"
          transform="rotate(45 8.84 7.192)"/>
  </g>

  <path transform="scale(.7), translate(6.5 8)" fill="#02303A"
        d="M14.6291209,3.18901099 C13.7327043,2.29250555 12.2870627,2.26771896 11.3604396,3.13296703 C11.3152865,3.1759076 11.2897252,3.23549093 11.2897252,3.2978022 C11.2897252,3.36011347 11.3152865,3.4196968 11.3604396,3.46263736 L11.643956,3.75274725 C11.7231667,3.83152916 11.8482945,3.83996474 11.9373626,3.77252747 C12.5022959,3.32127425 13.3226052,3.39593986 13.7967823,3.94177424 C14.2709593,4.48760862 14.2302016,5.31030007 13.7043956,5.80659341 C11.8368132,7.67252747 9.34450549,2.44065934 3.68736264,5.13736264 C3.49432879,5.23008524 3.34888725,5.3993344 3.28626138,5.604121 C3.22363551,5.80890759 3.24953676,6.03055516 3.35769231,6.21538462 L4.32857143,7.89175824 C4.53780584,8.25569786 5.00127872,8.38296898 5.36703297,8.17692308 L5.39010989,8.16373626 L5.37197802,8.17692308 L5.79725275,7.93956044 C6.27677592,7.64183594 6.73006329,7.30380047 7.1521978,6.92912088 C7.23851675,6.85043286 7.36925385,6.84623809 7.46043956,6.91923077 L7.46043956,6.91923077 C7.5087099,6.95971222 7.53739752,7.018879 7.53928662,7.08184887 C7.54117571,7.14481875 7.5160865,7.20559883 7.47032967,7.2489011 C7.02602633,7.64911599 6.54724302,8.00930666 6.03956044,8.32527473 L6.02472527,8.32527473 L5.59450549,8.56593407 C5.41280716,8.66796533 5.2078359,8.72133735 4.99945055,8.72087912 C4.56016448,8.7224574 4.15349312,8.48926563 3.93296703,8.10934066 L3.01483516,6.52527473 C1.25934066,7.77472527 0.181318681,10.1747253 0.764835165,13.2142857 C0.784593729,13.3199481 0.87657333,13.3967131 0.984065934,13.3972527 L2.01923077,13.3972527 C2.13759924,13.400323 2.23794367,13.3108071 2.24835165,13.1928571 C2.34895132,12.43126 2.99827094,11.8620691 3.76648352,11.8620691 C4.53469609,11.8620691 5.18401571,12.43126 5.28461538,13.1928571 C5.29796847,13.3047298 5.39282778,13.3889705 5.50549451,13.389011 L6.51758242,13.389011 C6.62996984,13.3882394 6.72441543,13.304366 6.73846154,13.1928571 C6.83906121,12.43126 7.48838083,11.8620691 8.25659341,11.8620691 C9.02480598,11.8620691 9.6741256,12.43126 9.77472527,13.1928571 C9.78877139,13.304366 9.88321697,13.3882394 9.9956044,13.389011 L11.0010989,13.389011 C11.1236317,13.3890242 11.2234728,13.2906514 11.2252747,13.1681319 C11.2483516,11.7505495 11.6307692,10.121978 12.7203297,9.30604396 C16.4950549,6.48241758 15.5027473,4.06263736 14.6291209,3.18901099 Z M10.7802198,7.4532967 L10.0598901,7.09230769 L10.0598901,7.09230769 C10.0597014,6.8795058 10.2080828,6.69544067 10.4160772,6.65046251 C10.6240715,6.60548435 10.8352462,6.71179653 10.9229983,6.90566309 C11.0107505,7.09952965 10.9512714,7.32835109 10.7802198,7.45494505 L10.7802198,7.4532967 Z"/>
</svg>